<svg width="41" height="41" viewBox="0 0 41 41" fill="none" xmlns="http://www.w3.org/2000/svg">
<ellipse cx="20.9607" cy="20.936" rx="19.9793" ry="19.9574" fill="#0E49B5"/>
<g clip-path="url(#clip0_915_618)">
<path d="M21.2444 33.9083H19.677C18.4093 33.9083 17.3779 32.8781 17.3779 31.6118V31.0821C16.839 30.9101 16.3153 30.693 15.8123 30.433L15.4365 30.8083C14.5264 31.7186 13.0684 31.6919 12.1847 30.808L11.077 29.7015C10.1917 28.8182 10.1662 27.3623 11.0773 26.4533L11.4527 26.0782C11.1924 25.5757 10.9751 25.0528 10.8029 24.5143H10.2727C9.00503 24.5143 7.97363 23.4841 7.97363 22.2178V20.6521C7.97363 19.3858 9.00503 18.3556 10.2727 18.3556H10.8029C10.9752 17.8172 11.1925 17.2942 11.4528 16.7917L11.077 16.4164C10.1665 15.5079 10.1916 14.0519 11.0773 13.1682L12.1852 12.0616C13.0709 11.1756 14.5285 11.1535 15.4369 12.0619L15.8123 12.4369C16.3154 12.1769 16.839 11.9598 17.3779 11.7877V11.2581C17.3779 9.99183 18.4093 8.96161 19.677 8.96161H21.2444C22.5121 8.96161 23.5434 9.99183 23.5434 11.2581V11.7878C24.0824 11.9598 24.606 12.1769 25.109 12.4369L25.4848 12.0616C26.395 11.1513 27.8529 11.178 28.7366 12.0619L29.8444 13.1684C30.7296 14.0518 30.7551 15.5076 29.8441 16.4166L29.4686 16.7917C29.7289 17.2942 29.9462 17.8172 30.1185 18.3556H30.6487C31.9163 18.3556 32.9477 19.3858 32.9477 20.6521V22.2178C32.9477 23.4841 31.9163 24.5143 30.6487 24.5143H30.1185C29.9462 25.0527 29.7289 25.5757 29.4686 26.0782L29.8444 26.4536C30.7549 27.3621 30.7297 28.8181 29.8441 29.7018L28.7362 30.8084C27.8504 31.6944 26.3929 31.7165 25.4845 30.8081L25.109 30.4331C24.606 30.6931 24.0824 30.9102 23.5434 31.0822V31.6119C23.5434 32.8781 22.5121 33.9083 21.2444 33.9083ZM16.0569 28.898C16.7557 29.3109 17.5079 29.6227 18.2924 29.825C18.6155 29.9083 18.8413 30.1993 18.8413 30.5327V31.6118C18.8413 32.0721 19.2162 32.4466 19.677 32.4466H21.2444C21.7052 32.4466 22.0802 32.0721 22.0802 31.6118V30.5327C22.0802 30.1993 22.3059 29.9083 22.629 29.825C23.4135 29.6227 24.1657 29.3109 24.8645 28.898C25.1521 28.7282 25.5181 28.7744 25.7544 29.0103L26.5196 29.7748C26.8495 30.1047 27.3793 30.0971 27.7012 29.7751L28.8097 28.6678C29.1308 28.3475 29.1415 27.8181 28.81 27.4875L28.0445 26.7227C27.8083 26.4868 27.7621 26.1211 27.932 25.8339C28.3453 25.1359 28.6575 24.3846 28.86 23.6008C28.9434 23.2781 29.2348 23.0526 29.5684 23.0526H30.6487C31.1095 23.0526 31.4845 22.6781 31.4845 22.2179V20.6522C31.4845 20.1919 31.1095 19.8174 30.6487 19.8174H29.5684C29.2347 19.8174 28.9434 19.5919 28.86 19.2692C28.6575 18.4854 28.3453 17.7341 27.932 17.0361C27.7621 16.7489 27.8083 16.3832 28.0445 16.1473L28.8097 15.3828C29.1406 15.0528 29.1319 14.5237 28.81 14.2025L27.7016 13.0953C27.3803 12.7739 26.8504 12.7645 26.5199 13.095L25.7544 13.8597C25.5182 14.0957 25.152 14.1418 24.8646 13.972C24.1657 13.5592 23.4136 13.2473 22.629 13.045C22.3059 12.9618 22.0802 12.6707 22.0802 12.3374V11.2581C22.0802 10.7978 21.7052 10.4233 21.2444 10.4233H19.6771C19.2163 10.4233 18.8413 10.7978 18.8413 11.2581V12.3373C18.8413 12.6706 18.6156 12.9617 18.2925 13.0449C17.5079 13.2472 16.7558 13.5591 16.057 13.9719C15.7694 14.1417 15.4033 14.0955 15.1671 13.8596L14.4019 13.0952C14.072 12.7652 13.5421 12.7729 13.2203 13.0948L12.1117 14.2021C11.7907 14.5224 11.7799 15.0517 12.1114 15.3825L12.877 16.1472C13.1132 16.3831 13.1594 16.7488 12.9894 17.036C12.5761 17.734 12.264 18.4854 12.0615 19.2691C11.9781 19.5918 11.6867 19.8173 11.353 19.8173H10.2727C9.81191 19.8173 9.43696 20.1918 9.43696 20.6521V22.2178C9.43696 22.6781 9.81191 23.0526 10.2727 23.0526H11.353C11.6867 23.0526 11.978 23.2781 12.0614 23.6008C12.2639 24.3845 12.5761 25.1358 12.9894 25.8339C13.1594 26.121 13.1131 26.4868 12.8769 26.7227L12.1117 27.4871C11.7809 27.8172 11.7895 28.3463 12.1114 28.6675L13.2199 29.7747C13.5412 30.0961 14.0711 30.1055 14.4015 29.775L15.167 29.0103C15.341 28.8365 15.7031 28.689 16.0569 28.898Z" fill="white"/>
<path d="M20.4607 26.8628C17.4644 26.8628 15.0269 24.4279 15.0269 21.435C15.0269 18.442 17.4644 16.0071 20.4607 16.0071C23.4569 16.0071 25.8945 18.442 25.8945 21.435C25.8945 24.4279 23.4569 26.8628 20.4607 26.8628ZM20.4607 17.4688C18.2713 17.4688 16.4902 19.248 16.4902 21.435C16.4902 23.6219 18.2713 25.4011 20.4607 25.4011C22.65 25.4011 24.4312 23.6219 24.4312 21.435C24.4312 19.248 22.6501 17.4688 20.4607 17.4688Z" fill="white"/>
</g>
<defs>
<clipPath id="clip0_915_618">
<rect width="24.9741" height="24.9467" fill="white" transform="translate(7.97363 8.96161)"/>
</clipPath>
</defs>
</svg>
